# xmcd CD database file
#
# Track frame offsets:
#	150
#	16479
#	32719
#	48804
#	65025
#	76954
#	94939
#	108782
#	123583
#	138499
#	153839
#	166179
#	177491
#	195969
#
# Disc length: 2856 seconds
#
# Revision: 1
# Processed by: cddbd v1.5.1PL0 Copyright (c) Steve Scherf et al.
# Submitted via: CDex 1.51
#
DISCID=af0b260e
DTITLE=The Don Kelley Band - Various Artists
DYEAR=1900
DGENRE=Country
TTITLE0=Workin' Man Blues
TTITLE1=Walking The Dog
TTITLE2=You Win Again
TTITLE3=Honey Hush
TTITLE4=Head Over Heels
TTITLE5=Start It Up
TTITLE6=Way To Survive
TTITLE7=Rolly Polly
TTITLE8=Tennnessee Stud
TTITLE9=That's Alright Mama
TTITLE10=Hey Baby
TTITLE11=Truck Driving Man
TTITLE12=Faded Blue Jeans
TTITLE13=Orange Blossom Special
EXTD=
EXTT0=
EXTT1=
EXTT2=
EXTT3=
EXTT4=
EXTT5=
EXTT6=
EXTT7=
EXTT8=
EXTT9=
EXTT10=
EXTT11=
EXTT12=
EXTT13=
PLAYORDER=
